<?xml version="1.0" encoding="UTF-8"?><svg width="30.1625mm" height="31.75mm" viewBox="0 0 114 120" xmlns="http://www.w3.org/2000/svg" xmlns:xlink="http://www.w3.org/1999/xlink"><g fill="none" stroke="black" stroke-width="1" fill-rule="evenodd" stroke-linecap="square" stroke-linejoin="bevel"><g clip-path="none" fill="#ffffff" fill-opacity="1" opacity="1" stroke="none" stroke-opacity="0" transform="matrix(1,0,0,1,0,0)"><path d="M0,0 L114,0 L114,120 L0,120 L0,0 z" fill-rule="evenodd" vector-effect="none"/></g><defs><clipPath id="clip3"><path d="M-107,-110 L7,-110 L7,10 L-107,10 L-107,-110 z"/></clipPath></defs><g clip-path="url(#clip3)" fill="none" opacity="1" stroke="#000000" stroke-linecap="round" stroke-linejoin="miter" stroke-miterlimit="2" stroke-opacity="1" stroke-width="2" transform="matrix(1,0,0,1,107,110)"><path d="M0.5,-4.5 L5.5,0.5 L0.5,5.5" fill-rule="evenodd" vector-effect="none"/></g><defs><clipPath id="clip6"><path d="M-107,-85 L7,-85 L7,35 L-107,35 L-107,-85 z"/></clipPath></defs><g clip-path="url(#clip6)" fill="none" opacity="1" stroke="#000000" stroke-linecap="round" stroke-linejoin="miter" stroke-miterlimit="2" stroke-opacity="1" stroke-width="2" transform="matrix(1,0,0,1,107,85)"><path d="M0.5,-4.5 L5.5,0.5 L0.5,5.5" fill-rule="evenodd" vector-effect="none"/></g><defs><clipPath id="clip9"><path d="M-107,-60 L7,-60 L7,60 L-107,60 L-107,-60 z"/></clipPath></defs><g clip-path="url(#clip9)" fill="none" opacity="1" stroke="#000000" stroke-linecap="round" stroke-linejoin="miter" stroke-miterlimit="2" stroke-opacity="1" stroke-width="2" transform="matrix(1,0,0,1,107,60)"><path d="M0.5,-4.5 L5.5,0.5 L0.5,5.5" fill-rule="evenodd" vector-effect="none"/></g><defs><clipPath id="clip12"><path d="M-107,-35 L7,-35 L7,85 L-107,85 L-107,-35 z"/></clipPath></defs><g clip-path="url(#clip12)" fill="none" opacity="1" stroke="#000000" stroke-linecap="round" stroke-linejoin="miter" stroke-miterlimit="2" stroke-opacity="1" stroke-width="2" transform="matrix(1,0,0,1,107,35)"><path d="M0.5,-4.5 L5.5,0.5 L0.5,5.5" fill-rule="evenodd" vector-effect="none"/></g><defs><clipPath id="clip15"><path d="M-107,-10 L7,-10 L7,110 L-107,110 L-107,-10 z"/></clipPath></defs><g clip-path="url(#clip15)" fill="none" opacity="1" stroke="#000000" stroke-linecap="round" stroke-linejoin="miter" stroke-miterlimit="2" stroke-opacity="1" stroke-width="2" transform="matrix(1,0,0,1,107,10)"><path d="M0.5,-4.5 L5.5,0.5 L0.5,5.5" fill-rule="evenodd" vector-effect="none"/></g><defs><clipPath id="clip18"><path d="M7,75 L-107,75 L-107,-45 L7,-45 L7,75 z"/></clipPath></defs><g clip-path="url(#clip18)" fill="none" opacity="1" stroke="#000000" stroke-linecap="round" stroke-linejoin="miter" stroke-miterlimit="2" stroke-opacity="1" stroke-width="2" transform="matrix(-1,0,0,-1,7,75)"><path d="M4.5,-5.5 L-0.5,-0.5 L4.5,4.5" fill-rule="evenodd" vector-effect="none"/></g><defs><clipPath id="clip21"><path d="M7,45 L-107,45 L-107,-75 L7,-75 L7,45 z"/></clipPath></defs><g clip-path="url(#clip21)" fill="none" opacity="1" stroke="#000000" stroke-linecap="round" stroke-linejoin="miter" stroke-miterlimit="2" stroke-opacity="1" stroke-width="2" transform="matrix(-1,0,0,-1,7,45)"><path d="M4.5,-5.5 L-0.5,-0.5 L4.5,4.5" fill-rule="evenodd" vector-effect="none"/></g><defs><clipPath id="clip24"><path d="M7,15 L-107,15 L-107,-105 L7,-105 L7,15 z"/></clipPath></defs><g clip-path="url(#clip24)" fill="none" opacity="1" stroke="#000000" stroke-linecap="round" stroke-linejoin="miter" stroke-miterlimit="2" stroke-opacity="1" stroke-width="2" transform="matrix(-1,0,0,-1,7,15)"><path d="M4.5,-5.5 L-0.5,-0.5 L4.5,4.5" fill-rule="evenodd" vector-effect="none"/></g><defs><clipPath id="clip27"><path d="M7,105 L-107,105 L-107,-15 L7,-15 L7,105 z"/></clipPath></defs><g clip-path="url(#clip27)" fill="none" opacity="1" stroke="#000000" stroke-linecap="round" stroke-linejoin="miter" stroke-miterlimit="2" stroke-opacity="1" stroke-width="2" transform="matrix(-1,0,0,-1,7,105)"><path d="M4.5,-5.5 L-0.5,-0.5 L4.5,4.5" fill-rule="evenodd" vector-effect="none"/></g><defs><clipPath id="clip30"><path d="M-7,-2 L107,-2 L107,118 L-7,118 L-7,-2 z"/></clipPath></defs><g clip-path="url(#clip30)" fill="#000000" fill-opacity="0.8" opacity="1" stroke="none" stroke-opacity="0" transform="matrix(1,0,0,1,7,2)"><path d="M100,4 L104,4 L104,120 L4,120 L4,116 L100,116 L100,4 z" fill-rule="evenodd" vector-effect="none"/></g><defs><clipPath id="clip31"><path d="M-7,-2 L107,-2 L107,118 L-7,118 L-7,-2 z"/></clipPath></defs><g clip-path="url(#clip31)" fill="#61bdfc" fill-opacity="1" opacity="1" stroke="none" stroke-opacity="0" transform="matrix(1,0,0,1,7,2)"><path d="M0,0 L100,0 L100,116 L0,116 L0,0 z" fill-rule="evenodd" vector-effect="none"/></g><defs><clipPath id="clip35"><path d="M280,77 L380,77 L380,193 L280,193 L280,77 z"/></clipPath></defs><g clip-path="url(#clip35)" fill="#e8d600" fill-opacity="1" opacity="1" stroke="#e8d600" stroke-linecap="square" stroke-linejoin="bevel" stroke-opacity="1" stroke-width="1" transform="matrix(1,0,0,1,-273,-75)"><path d="M280,193 L380,193 L380,169 L280,193 z" fill-rule="evenodd" vector-effect="none"/></g><defs><clipPath id="clip36"><path d="M-3,-14 L97,-14 L97,102 L-3,102 L-3,-14 z"/></clipPath></defs><g clip-path="url(#clip36)" fill="#e8d600" fill-opacity="1" opacity="1" stroke="#000000" stroke-linecap="square" stroke-linejoin="bevel" stroke-opacity="1" stroke-width="1" transform="matrix(1,0,0,1,10,16)"><text fill="#000000" fill-opacity="1" font-family="Arial" font-size="10" font-style="normal" font-weight="400" stroke="none" textLength="2.76562" x="0" xml:space="preserve" y="1">I</text></g><defs><clipPath id="clip37"><path d="M-6,-19 L94,-19 L94,97 L-6,97 L-6,-19 z"/></clipPath></defs><g clip-path="url(#clip37)" fill="#e8d600" fill-opacity="1" opacity="1" stroke="#000000" stroke-linecap="square" stroke-linejoin="bevel" stroke-opacity="1" stroke-width="1" transform="matrix(1,0,0,1,13,21)"><text fill="#000000" fill-opacity="1" font-family="Arial" font-size="8" font-style="normal" font-weight="400" stroke="none" textLength="5.32812" x="0" xml:space="preserve" y="1">A</text></g><defs><clipPath id="clip38"><path d="M-3,-44 L97,-44 L97,72 L-3,72 L-3,-44 z"/></clipPath></defs><g clip-path="url(#clip38)" fill="#e8d600" fill-opacity="1" opacity="1" stroke="#000000" stroke-linecap="square" stroke-linejoin="bevel" stroke-opacity="1" stroke-width="1" transform="matrix(1,0,0,1,10,46)"><text fill="#000000" fill-opacity="1" font-family="Arial" font-size="10" font-style="normal" font-weight="400" stroke="none" textLength="2.76562" x="0" xml:space="preserve" y="1">I</text></g><defs><clipPath id="clip39"><path d="M-6,-49 L94,-49 L94,67 L-6,67 L-6,-49 z"/></clipPath></defs><g clip-path="url(#clip39)" fill="#e8d600" fill-opacity="1" opacity="1" stroke="#000000" stroke-linecap="square" stroke-linejoin="bevel" stroke-opacity="1" stroke-width="1" transform="matrix(1,0,0,1,13,51)"><text fill="#000000" fill-opacity="1" font-family="Arial" font-size="8" font-style="normal" font-weight="400" stroke="none" textLength="5.32812" x="0" xml:space="preserve" y="1">B</text></g><defs><clipPath id="clip40"><path d="M-3,-74 L97,-74 L97,42 L-3,42 L-3,-74 z"/></clipPath></defs><g clip-path="url(#clip40)" fill="#e8d600" fill-opacity="1" opacity="1" stroke="#000000" stroke-linecap="square" stroke-linejoin="bevel" stroke-opacity="1" stroke-width="1" transform="matrix(1,0,0,1,10,76)"><text fill="#000000" fill-opacity="1" font-family="Arial" font-size="10" font-style="normal" font-weight="400" stroke="none" textLength="2.76562" x="0" xml:space="preserve" y="1">I</text></g><defs><clipPath id="clip41"><path d="M-6,-79 L94,-79 L94,37 L-6,37 L-6,-79 z"/></clipPath></defs><g clip-path="url(#clip41)" fill="#e8d600" fill-opacity="1" opacity="1" stroke="#000000" stroke-linecap="square" stroke-linejoin="bevel" stroke-opacity="1" stroke-width="1" transform="matrix(1,0,0,1,13,81)"><text fill="#000000" fill-opacity="1" font-family="Arial" font-size="8" font-style="normal" font-weight="400" stroke="none" textLength="5.76562" x="0" xml:space="preserve" y="1">C</text></g><defs><clipPath id="clip42"><path d="M-3,-103 L97,-103 L97,13 L-3,13 L-3,-103 z"/></clipPath></defs><g clip-path="url(#clip42)" fill="#e8d600" fill-opacity="1" opacity="1" stroke="#000000" stroke-linecap="square" stroke-linejoin="bevel" stroke-opacity="1" stroke-width="1" transform="matrix(1,0,0,1,10,105)"><text fill="#000000" fill-opacity="1" font-family="Arial" font-size="10" font-style="normal" font-weight="400" stroke="none" textLength="31.0625" x="0" xml:space="preserve" y="3.5">Enable</text></g><defs><clipPath id="clip43"><path d="M-85,-9 L15,-9 L15,107 L-85,107 L-85,-9 z"/></clipPath></defs><g clip-path="url(#clip43)" fill="#e8d600" fill-opacity="1" opacity="1" stroke="#000000" stroke-linecap="square" stroke-linejoin="bevel" stroke-opacity="1" stroke-width="1" transform="matrix(1,0,0,1,92,11)"><text fill="#000000" fill-opacity="1" font-family="Arial" font-size="10" font-style="normal" font-weight="400" stroke="none" textLength="7.21875" x="0" xml:space="preserve" y="1">U</text></g><defs><clipPath id="clip44"><path d="M-92,-14 L8,-14 L8,102 L-92,102 L-92,-14 z"/></clipPath></defs><g clip-path="url(#clip44)" fill="#e8d600" fill-opacity="1" opacity="1" stroke="#000000" stroke-linecap="square" stroke-linejoin="bevel" stroke-opacity="1" stroke-width="1" transform="matrix(1,0,0,1,99,16)"><text fill="#000000" fill-opacity="1" font-family="Arial" font-size="8" font-style="normal" font-weight="400" stroke="none" textLength="5.32812" x="0" xml:space="preserve" y="1">A</text></g><defs><clipPath id="clip45"><path d="M-85,-34 L15,-34 L15,82 L-85,82 L-85,-34 z"/></clipPath></defs><g clip-path="url(#clip45)" fill="#e8d600" fill-opacity="1" opacity="1" stroke="#000000" stroke-linecap="square" stroke-linejoin="bevel" stroke-opacity="1" stroke-width="1" transform="matrix(1,0,0,1,92,36)"><text fill="#000000" fill-opacity="1" font-family="Arial" font-size="10" font-style="normal" font-weight="400" stroke="none" textLength="7.21875" x="0" xml:space="preserve" y="1">U</text></g><defs><clipPath id="clip46"><path d="M-92,-39 L8,-39 L8,77 L-92,77 L-92,-39 z"/></clipPath></defs><g clip-path="url(#clip46)" fill="#e8d600" fill-opacity="1" opacity="1" stroke="#000000" stroke-linecap="square" stroke-linejoin="bevel" stroke-opacity="1" stroke-width="1" transform="matrix(1,0,0,1,99,41)"><text fill="#000000" fill-opacity="1" font-family="Arial" font-size="8" font-style="normal" font-weight="400" stroke="none" textLength="5.32812" x="0" xml:space="preserve" y="1">B</text></g><defs><clipPath id="clip47"><path d="M-84,-59 L16,-59 L16,57 L-84,57 L-84,-59 z"/></clipPath></defs><g clip-path="url(#clip47)" fill="#e8d600" fill-opacity="1" opacity="1" stroke="#000000" stroke-linecap="square" stroke-linejoin="bevel" stroke-opacity="1" stroke-width="1" transform="matrix(1,0,0,1,91,61)"><text fill="#000000" fill-opacity="1" font-family="Arial" font-size="10" font-style="normal" font-weight="400" stroke="none" textLength="7.21875" x="0" xml:space="preserve" y="1">U</text></g><defs><clipPath id="clip48"><path d="M-91,-64 L9,-64 L9,52 L-91,52 L-91,-64 z"/></clipPath></defs><g clip-path="url(#clip48)" fill="#e8d600" fill-opacity="1" opacity="1" stroke="#000000" stroke-linecap="square" stroke-linejoin="bevel" stroke-opacity="1" stroke-width="1" transform="matrix(1,0,0,1,98,66)"><text fill="#000000" fill-opacity="1" font-family="Arial" font-size="8" font-style="normal" font-weight="400" stroke="none" textLength="5.76562" x="0" xml:space="preserve" y="1">C</text></g><defs><clipPath id="clip49"><path d="M-68,-87 L32,-87 L32,29 L-68,29 L-68,-87 z"/></clipPath></defs><g clip-path="url(#clip49)" fill="#e8d600" fill-opacity="1" opacity="1" stroke="#000000" stroke-linecap="square" stroke-linejoin="bevel" stroke-opacity="1" stroke-width="1" transform="matrix(1,0,0,1,75,89)"><text fill="#000000" fill-opacity="1" font-family="Arial" font-size="10" font-style="normal" font-weight="400" stroke="none" textLength="28.8594" x="0" xml:space="preserve" y="1">Ready</text></g><defs><clipPath id="clip50"><path d="M-87,-109 L13,-109 L13,7 L-87,7 L-87,-109 z"/></clipPath></defs><g clip-path="url(#clip50)" fill="#e8d600" fill-opacity="1" opacity="1" stroke="#000000" stroke-linecap="square" stroke-linejoin="bevel" stroke-opacity="1" stroke-width="1" transform="matrix(1,0,0,1,94,111)"><text fill="#000000" fill-opacity="1" font-family="Arial" font-size="10" font-style="normal" font-weight="400" stroke="none" textLength="6.48438" x="0" xml:space="preserve" y="1">φ</text></g><defs><clipPath id="clip51"><path d="M-93,-114 L7,-114 L7,2 L-93,2 L-93,-114 z"/></clipPath></defs><g clip-path="url(#clip51)" fill="#e8d600" fill-opacity="1" opacity="1" stroke="#000000" stroke-linecap="square" stroke-linejoin="bevel" stroke-opacity="1" stroke-width="1" transform="matrix(1,0,0,1,100,116)"><text fill="#000000" fill-opacity="1" font-family="Arial" font-size="8" font-style="normal" font-weight="400" stroke="none" textLength="4.4375" x="0" xml:space="preserve" y="1">0</text></g><defs><clipPath id="clip52"><path d="M-40,-63 L60,-63 L60,53 L-40,53 L-40,-63 z"/></clipPath></defs><g clip-path="url(#clip52)" fill="#e8d600" fill-opacity="1" opacity="1" stroke="#000000" stroke-linecap="square" stroke-linejoin="bevel" stroke-opacity="1" stroke-width="1" transform="matrix(1,0,0,1,47,65)"><text fill="#000000" fill-opacity="1" font-family="Arial" font-size="20" font-style="normal" font-weight="400" stroke="none" textLength="12.9688" x="0" xml:space="preserve" y="1">φ</text></g><defs><clipPath id="clip53"><path d="M-53,-68 L47,-68 L47,48 L-53,48 L-53,-68 z"/></clipPath></defs><g clip-path="url(#clip53)" fill="#e8d600" fill-opacity="1" opacity="1" stroke="#000000" stroke-linecap="square" stroke-linejoin="bevel" stroke-opacity="1" stroke-width="1" transform="matrix(1,0,0,1,60,70)"><text fill="#000000" fill-opacity="1" font-family="Arial" font-size="13" font-style="normal" font-weight="400" stroke="none" textLength="7.21875" x="0" xml:space="preserve" y="1">0</text></g><defs><clipPath id="clip58"><path d="M-7.5,-2.5 L106.5,-2.5 L106.5,117.5 L-7.5,117.5 L-7.5,-2.5 z"/></clipPath></defs><g clip-path="url(#clip58)" fill="none" opacity="1" stroke="#000000" stroke-linecap="butt" stroke-linejoin="miter" stroke-miterlimit="2" stroke-opacity="1" stroke-width="1" transform="matrix(1,0,0,1,7.5,2.5)"><path d="M0,0 L100,0 L100,116 L0,116 L0,0 z" fill-rule="evenodd" vector-effect="none"/></g></g><!--generated on windows @ 2021-02-24 11:51:39 Mitteleuropäische Zeit--></svg>
