<?xml version="1.0" encoding="UTF-8"?><svg width="11.6417mm" height="15.6104mm" viewBox="0 0 44 59" xmlns="http://www.w3.org/2000/svg" xmlns:xlink="http://www.w3.org/1999/xlink"><g fill="none" stroke="black" stroke-width="1" fill-rule="evenodd" stroke-linecap="square" stroke-linejoin="bevel"><g clip-path="none" fill="#ffffff" fill-opacity="1" opacity="1" stroke="none" stroke-opacity="0" transform="matrix(1,0,0,1,0,0)"><path d="M0,0 L44,0 L44,59 L0,59 L0,0 z" fill-rule="evenodd" vector-effect="none"/></g><defs><clipPath id="clip3"><path d="M-37,-17 L7,-17 L7,42 L-37,42 L-37,-17 z"/></clipPath></defs><g clip-path="url(#clip3)" fill="none" opacity="1" stroke="#000000" stroke-linecap="round" stroke-linejoin="miter" stroke-miterlimit="2" stroke-opacity="1" stroke-width="2" transform="matrix(1,0,0,1,37,17)"><path d="M0.5,-4.5 L5.5,0.5 L0.5,5.5" fill-rule="evenodd" vector-effect="none"/></g><defs><clipPath id="clip6"><path d="M7,52 L-37,52 L-37,-7 L7,-7 L7,52 z"/></clipPath></defs><g clip-path="url(#clip6)" fill="none" opacity="1" stroke="#000000" stroke-linecap="round" stroke-linejoin="miter" stroke-miterlimit="2" stroke-opacity="1" stroke-width="2" transform="matrix(-1,0,0,-1,7,52)"><path d="M4.5,-5.5 L-0.5,-0.5 L4.5,4.5" fill-rule="evenodd" vector-effect="none"/></g><defs><clipPath id="clip9"><path d="M-37,-42 L7,-42 L7,17 L-37,17 L-37,-42 z"/></clipPath></defs><g clip-path="url(#clip9)" fill="none" opacity="1" stroke="#000000" stroke-linecap="round" stroke-linejoin="miter" stroke-miterlimit="2" stroke-opacity="1" stroke-width="2" transform="matrix(1,0,0,1,37,42)"><path d="M0.5,-4.5 L5.5,0.5 L0.5,5.5" fill-rule="evenodd" vector-effect="none"/></g><defs><clipPath id="clip12"><path d="M7,37 L-37,37 L-37,-22 L7,-22 L7,37 z"/></clipPath></defs><g clip-path="url(#clip12)" fill="none" opacity="1" stroke="#000000" stroke-linecap="round" stroke-linejoin="miter" stroke-miterlimit="2" stroke-opacity="1" stroke-width="2" transform="matrix(-1,0,0,-1,7,37)"><path d="M4.5,-5.5 L-0.5,-0.5 L4.5,4.5" fill-rule="evenodd" vector-effect="none"/></g><defs><clipPath id="clip15"><path d="M7,22 L-37,22 L-37,-37 L7,-37 L7,22 z"/></clipPath></defs><g clip-path="url(#clip15)" fill="none" opacity="1" stroke="#000000" stroke-linecap="round" stroke-linejoin="miter" stroke-miterlimit="2" stroke-opacity="1" stroke-width="2" transform="matrix(-1,0,0,-1,7,22)"><path d="M4.5,-5.5 L-0.5,-0.5 L4.5,4.5" fill-rule="evenodd" vector-effect="none"/></g><defs><clipPath id="clip18"><path d="M7,7 L-37,7 L-37,-52 L7,-52 L7,7 z"/></clipPath></defs><g clip-path="url(#clip18)" fill="none" opacity="1" stroke="#000000" stroke-linecap="round" stroke-linejoin="miter" stroke-miterlimit="2" stroke-opacity="1" stroke-width="2" transform="matrix(-1,0,0,-1,7,7)"><path d="M4.5,-5.5 L-0.5,-0.5 L4.5,4.5" fill-rule="evenodd" vector-effect="none"/></g><defs><clipPath id="clip21"><path d="M-7,-3 L37,-3 L37,56 L-7,56 L-7,-3 z"/></clipPath></defs><g clip-path="url(#clip21)" fill="#000000" fill-opacity="0.8" opacity="1" stroke="none" stroke-opacity="0" transform="matrix(1,0,0,1,7,3)"><path d="M30,4 L34,4 L34,57 L4,57 L4,53 L30,53 L30,4 z" fill-rule="evenodd" vector-effect="none"/></g><defs><clipPath id="clip22"><path d="M-7,-3 L37,-3 L37,56 L-7,56 L-7,-3 z"/></clipPath></defs><g clip-path="url(#clip22)" fill="#61bdfc" fill-opacity="1" opacity="1" stroke="none" stroke-opacity="0" transform="matrix(1,0,0,1,7,3)"><path d="M0,0 L30,0 L30,53 L0,53 L0,0 z" fill-rule="evenodd" vector-effect="none"/></g><defs><clipPath id="clip26"><path d="M1615,971 L1645,971 L1645,1024 L1615,1024 L1615,971 z"/></clipPath></defs><g clip-path="url(#clip26)" fill="#e8d600" fill-opacity="1" opacity="1" stroke="#e8d600" stroke-linecap="square" stroke-linejoin="bevel" stroke-opacity="1" stroke-width="1" transform="matrix(1,0,0,1,-1608,-968)"><path d="M1615,1024 L1645,1024 L1645,1005 L1615,1024 z" fill-rule="evenodd" vector-effect="none"/></g><defs><clipPath id="clip27"><path d="M-3,-9 L27,-9 L27,44 L-3,44 L-3,-9 z"/></clipPath></defs><g clip-path="url(#clip27)" fill="#e8d600" fill-opacity="1" opacity="1" stroke="#000000" stroke-linecap="square" stroke-linejoin="bevel" stroke-opacity="1" stroke-width="1" transform="matrix(1,0,0,1,10,12)"><text fill="#000000" fill-opacity="1" font-family="Arial" font-size="10" font-style="normal" font-weight="400" stroke="none" textLength="5.54688" x="0" xml:space="preserve" y="1">d</text><text fill="#000000" fill-opacity="1" font-family="Arial" font-size="10" font-style="normal" font-weight="400" stroke="none" textLength="6.48438" x="5.54688" xml:space="preserve" y="1">φ</text></g><defs><clipPath id="clip28"><path d="M-3,-20 L27,-20 L27,33 L-3,33 L-3,-20 z"/></clipPath></defs><g clip-path="url(#clip28)" fill="#e8d600" fill-opacity="1" opacity="1" stroke="#000000" stroke-linecap="square" stroke-linejoin="bevel" stroke-opacity="1" stroke-width="1" transform="matrix(1,0,0,1,10,23)"><text fill="#000000" fill-opacity="1" font-family="Arial" font-size="10" font-style="normal" font-weight="400" stroke="none" textLength="5.54688" x="0" xml:space="preserve" y="1">n</text></g><defs><clipPath id="clip29"><path d="M-9,-25 L21,-25 L21,28 L-9,28 L-9,-25 z"/></clipPath></defs><g clip-path="url(#clip29)" fill="#e8d600" fill-opacity="1" opacity="1" stroke="#000000" stroke-linecap="square" stroke-linejoin="bevel" stroke-opacity="1" stroke-width="1" transform="matrix(1,0,0,1,16,28)"><text fill="#000000" fill-opacity="1" font-family="Arial" font-size="8" font-style="normal" font-weight="400" stroke="none" textLength="4.4375" x="0" xml:space="preserve" y="1">0</text></g><defs><clipPath id="clip30"><path d="M-3,-35 L27,-35 L27,18 L-3,18 L-3,-35 z"/></clipPath></defs><g clip-path="url(#clip30)" fill="#e8d600" fill-opacity="1" opacity="1" stroke="#000000" stroke-linecap="square" stroke-linejoin="bevel" stroke-opacity="1" stroke-width="1" transform="matrix(1,0,0,1,10,38)"><text fill="#000000" fill-opacity="1" font-family="Arial" font-size="10" font-style="normal" font-weight="400" stroke="none" textLength="6.48438" x="0" xml:space="preserve" y="1">φ</text></g><defs><clipPath id="clip31"><path d="M-9,-40 L21,-40 L21,13 L-9,13 L-9,-40 z"/></clipPath></defs><g clip-path="url(#clip31)" fill="#e8d600" fill-opacity="1" opacity="1" stroke="#000000" stroke-linecap="square" stroke-linejoin="bevel" stroke-opacity="1" stroke-width="1" transform="matrix(1,0,0,1,16,43)"><text fill="#000000" fill-opacity="1" font-family="Arial" font-size="8" font-style="normal" font-weight="400" stroke="none" textLength="4.4375" x="0" xml:space="preserve" y="1">0</text></g><defs><clipPath id="clip32"><path d="M-3,-48 L27,-48 L27,5 L-3,5 L-3,-48 z"/></clipPath></defs><g clip-path="url(#clip32)" fill="#e8d600" fill-opacity="1" opacity="1" stroke="#000000" stroke-linecap="square" stroke-linejoin="bevel" stroke-opacity="1" stroke-width="1" transform="matrix(1,0,0,1,10,51)"><text fill="#000000" fill-opacity="1" font-family="Arial" font-size="10" font-style="normal" font-weight="400" stroke="none" textLength="31.0625" x="0" xml:space="preserve" y="3.5">Enable</text></g><defs><clipPath id="clip33"><path d="M-21,-18 L9,-18 L9,35 L-21,35 L-21,-18 z"/></clipPath></defs><g clip-path="url(#clip33)" fill="#e8d600" fill-opacity="1" opacity="1" stroke="#000000" stroke-linecap="square" stroke-linejoin="bevel" stroke-opacity="1" stroke-width="1" transform="matrix(1,0,0,1,28,21)"><text fill="#000000" fill-opacity="1" font-family="Arial" font-size="10" font-style="normal" font-weight="400" stroke="none" textLength="5.54688" x="0" xml:space="preserve" y="1">n</text></g><defs><clipPath id="clip34"><path d="M-21,-43 L9,-43 L9,10 L-21,10 L-21,-43 z"/></clipPath></defs><g clip-path="url(#clip34)" fill="#e8d600" fill-opacity="1" opacity="1" stroke="#000000" stroke-linecap="square" stroke-linejoin="bevel" stroke-opacity="1" stroke-width="1" transform="matrix(1,0,0,1,28,46)"><text fill="#000000" fill-opacity="1" font-family="Arial" font-size="10" font-style="normal" font-weight="400" stroke="none" textLength="6.48438" x="0" xml:space="preserve" y="1">φ</text></g><defs><clipPath id="clip39"><path d="M-7.5,-3.5 L36.5,-3.5 L36.5,55.5 L-7.5,55.5 L-7.5,-3.5 z"/></clipPath></defs><g clip-path="url(#clip39)" fill="none" opacity="1" stroke="#000000" stroke-linecap="butt" stroke-linejoin="miter" stroke-miterlimit="2" stroke-opacity="1" stroke-width="1" transform="matrix(1,0,0,1,7.5,3.5)"><path d="M0,0 L30,0 L30,53 L0,53 L0,0 z" fill-rule="evenodd" vector-effect="none"/></g></g><!--generated on windows @ 2021-12-14 15:07:57 Mitteleuropäische Zeit--></svg>
