<?xml version="1.0" encoding="UTF-8"?>
<!DOCTYPE svg PUBLIC "-//W3C//DTD SVG 1.1//EN" "http://www.w3.org/Graphics/SVG/1.1/DTD/svg11.dtd">
<!-- Creator: CorelDRAW X6 -->
<svg xmlns="http://www.w3.org/2000/svg" xml:space="preserve" width="100mm" height="120mm" version="1.1" style="shape-rendering:geometricPrecision; text-rendering:geometricPrecision; image-rendering:optimizeQuality; fill-rule:evenodd; clip-rule:evenodd"
viewBox="0 0 10000 12000"
 xmlns:xlink="http://www.w3.org/1999/xlink">
 <defs>
  <style type="text/css">
   <![CDATA[
    .fil0 {fill:#E8D600}
    .fil1 {fill:#2B2A29;fill-rule:nonzero}
   ]]>
  </style>
 </defs>
 <g id="Ebene_x0020_1">
  <metadata id="CorelCorpID_0Corel-Layer"/>
  <polygon class="fil0" points="10000,12000 0,12000 10000,9000 "/>
  <path class="fil1" d="M4440 4953l-43 193c-171,58 -256,207 -256,449 0,128 33,243 100,343 67,100 168,165 301,194l0 -815c0,-88 6,-155 19,-202 12,-48 40,-87 85,-117 44,-30 104,-45 181,-45 118,0 214,24 288,72 74,48 137,124 188,226 51,104 77,215 77,333 0,99 -20,198 -60,298 -41,99 -106,190 -197,274 -91,83 -210,140 -357,171l0 478 -224 0 0 -478c-153,0 -296,-67 -430,-202 -133,-134 -200,-308 -200,-519 0,-196 53,-355 160,-476 107,-121 230,-180 368,-177zm326 1169c104,-19 194,-78 269,-176 74,-97 112,-226 112,-384 0,-147 -28,-255 -82,-322 -54,-67 -112,-101 -173,-101 -44,0 -76,15 -96,45 -20,30 -30,96 -30,198l0 740z"/>
  <path id="1" class="fil1" d="M5524 6359c0,-107 11,-194 33,-260 22,-66 55,-116 98,-152 44,-35 99,-53 165,-53 48,0 91,10 128,30 37,20 67,48 91,85 24,37 43,82 56,135 14,53 21,125 21,215 0,107 -11,193 -33,258 -22,66 -55,117 -98,152 -44,36 -99,54 -165,54 -88,0 -157,-31 -206,-94 -60,-76 -90,-199 -90,-370zm114 0c0,150 17,249 52,298 35,50 78,74 130,74 51,0 94,-24 129,-74 35,-49 52,-149 52,-298 0,-149 -17,-249 -52,-298 -35,-49 -78,-74 -131,-74 -51,0 -92,22 -123,65 -38,56 -57,158 -57,307z"/>
 </g>
</svg>
